<?xml version="1.0" encoding="utf-8"?><svg viewBox="0 0 462 203" xmlns="http://www.w3.org/2000/svg" xmlns:xlink="http://www.w3.org/1999/xlink"><style>:root>svg{display:none}:root>svg:target{display:block}</style><svg fill="none" viewBox="0 0 462 203" id="404" xmlns="http://www.w3.org/2000/svg"><path d="M177.53 163.383L184.792 0c5.567 46.715 17.573 143.777 21.058 158.3 3.486 14.523 18.396 15.249 25.415 13.797v30.498c-50.589 0-56.397-23.963-53.735-39.212z" fill="#F1F3F6"/><path d="M284.47 163.383L277.208 0c-5.567 46.715-17.573 143.777-21.058 158.3-3.486 14.523-18.396 15.249-25.415 13.797v30.498c50.589 0 56.397-23.963 53.735-39.212zM232.916 77.698l9.44-16.702-11.619-5.083-11.618 5.083 9.44 16.702h4.357z" fill="#F1F3F6"/><path d="M219.119 173.549l11.618-116.91 11.619 116.91h-23.237z" fill="#F1F3F6"/><path d="M219.119 57.365l11.618-21.058 11.619 21.058-11.619-7.987-11.618 7.987z" fill="#F1F3F6"/><path d="M104.868 202.913c-2.415 0-4.509-.886-6.28-2.657-1.772-1.772-2.658-4.027-2.658-6.764v-35.754H9.446c-2.577 0-4.751-.805-6.523-2.416-1.61-1.771-2.577-3.784-2.899-6.039-.16-2.255.483-4.348 1.933-6.281L97.62 17.865c.805-1.127 1.772-2.013 2.899-2.657 1.289-.805 2.899-1.208 4.832-1.208 2.576 0 4.67.966 6.281 2.899 1.771 1.771 2.657 4.026 2.657 6.764v117.165h19.085c2.576 0 4.751.644 6.522 1.932 1.772 1.289 2.657 3.544 2.657 6.765 0 2.093-.885 4.026-2.657 5.797-1.771 1.611-3.946 2.416-6.522 2.416H114.29v35.754c0 2.737-.886 4.992-2.657 6.764-1.772 1.771-4.027 2.657-6.765 2.657zm-85.276-54.838l-3.382-7.247h79.72V37.191l4.832 5.073-81.17 105.811zM423.448 202.913c-2.416 0-4.51-.886-6.281-2.657-1.772-1.772-2.657-4.027-2.657-6.764v-35.754h-86.485c-2.577 0-4.751-.805-6.523-2.416-1.61-1.771-2.576-3.784-2.898-6.039-.161-2.255.483-4.348 1.932-6.281l95.665-125.137c.805-1.127 1.771-2.013 2.899-2.657 1.288-.805 2.898-1.208 4.831-1.208 2.577 0 4.671.966 6.281 2.899 1.772 1.771 2.657 4.026 2.657 6.764v117.165h19.085c2.577 0 4.751.644 6.523 1.932 1.771 1.289 2.657 3.544 2.657 6.765 0 2.093-.886 4.026-2.657 5.797-1.772 1.611-3.946 2.416-6.523 2.416h-19.085v35.754c0 2.737-.885 4.992-2.657 6.764-1.771 1.771-4.026 2.657-6.764 2.657zm-85.277-54.838l-3.382-7.247h79.721V37.191l4.831 5.073-81.17 105.811z" fill="#fff"/></svg><svg fill="none" viewBox="0 0 32 24" id="arrow-left" xmlns="http://www.w3.org/2000/svg"><path d="M.94 10.94a1.5 1.5 0 000 2.12l9.545 9.547a1.5 1.5 0 102.122-2.122L4.12 12l8.486-8.485a1.5 1.5 0 10-2.122-2.122L.94 10.94zM32 10.5H2v3h30v-3z" fill="#0093E6"/></svg><svg fill="none" viewBox="0 0 32 24" id="arrow-right" xmlns="http://www.w3.org/2000/svg"><path d="M31.06 10.94a1.5 1.5 0 010 2.12l-9.545 9.547a1.5 1.5 0 11-2.122-2.122L27.88 12l-8.486-8.485a1.5 1.5 0 112.122-2.122l9.546 9.546zM0 10.5h30v3H0v-3z" fill="#0093E6"/></svg><svg fill="none" viewBox="0 0 50 50" id="chat" xmlns="http://www.w3.org/2000/svg"><g clip-path="url(#dclip0)" fill="#4A4D4E"><path d="M36.356 4.957H2.816A2.819 2.819 0 000 7.772v20.123a2.819 2.819 0 002.816 2.816H4.99v7.49a1.18 1.18 0 002.014.835l8.325-8.326H17a1.18 1.18 0 100-2.358s-2.215.001-2.238.003a1.174 1.174 0 00-.754.342l-6.658 6.657s-.002-5.898-.005-5.928a1.18 1.18 0 00-1.175-1.074H2.816a.457.457 0 01-.457-.457V7.772c0-.252.205-.456.457-.456h33.54c.252 0 .457.205.457.456v7.72a1.18 1.18 0 002.359 0v-7.72a2.819 2.819 0 00-2.816-2.815z"/><path d="M47.185 19.384H23.707A2.819 2.819 0 0020.89 22.2v13.727a2.819 2.819 0 002.816 2.816h14.698l5.955 5.955a1.18 1.18 0 002.014-.834v-5.121h.81A2.819 2.819 0 0050 35.927V22.2a2.818 2.818 0 00-2.815-2.816zm.456 16.543a.457.457 0 01-.456.457h-1.99c-.62 0-1.128.48-1.175 1.088-.003.026-.005 3.544-.005 3.544l-4.283-4.283-.013-.013a1.174 1.174 0 00-.824-.337H23.707a.457.457 0 01-.457-.456V22.2c0-.252.205-.457.457-.457h23.478c.252 0 .456.205.456.457v13.727z"/><path d="M35.446 27.884a1.18 1.18 0 100 2.36 1.18 1.18 0 000-2.36zM30.32 12.755H8.851a1.18 1.18 0 000 2.359H30.32a1.18 1.18 0 100-2.36zM17 20.553H8.851a1.18 1.18 0 100 2.36H17a1.18 1.18 0 100-2.36zM29.965 27.884a1.18 1.18 0 100 2.36 1.18 1.18 0 000-2.36zM40.926 27.884a1.18 1.18 0 100 2.36 1.18 1.18 0 000-2.36z"/></g><defs><clipPath id="dclip0"><path fill="#fff" d="M0 0h50v50H0z"/></clipPath></defs></svg><svg fill="none" viewBox="0 0 50 50" id="contact" xmlns="http://www.w3.org/2000/svg"><path d="M46.815 8.704H3.185A3.188 3.188 0 000 11.89V38.11a3.188 3.188 0 003.185 3.185h43.63A3.188 3.188 0 0050 38.111V11.89a3.188 3.188 0 00-3.185-3.185zm1.062 29.407c0 .585-.476 1.062-1.062 1.062H3.185a1.063 1.063 0 01-1.062-1.062V11.89c0-.585.476-1.062 1.062-1.062h43.63c.586 0 1.062.476 1.062 1.062V38.11z" fill="#0093E6"/><path d="M41.221 18.018H29.828a1.062 1.062 0 100 2.123h11.393a1.062 1.062 0 100-2.123zM41.221 23.939H29.828a1.062 1.062 0 100 2.123h11.393a1.062 1.062 0 000-2.123zM41.221 29.859H29.828a1.062 1.062 0 000 2.123h11.393a1.062 1.062 0 000-2.123zM19.604 28.344c-.021-.001-1.964.08-2.49-2.022.71-.559 1.305-1.334 1.73-2.26.032.003.063.007.094.007.29 0 .57-.132.754-.369.892-1.145 1.355-2.631 1.306-4.186-.103-3.223-2.346-5.764-5.109-5.794a2.53 2.53 0 00-.197.001h-.004a4.847 4.847 0 00-2.105-.403c-1.555.05-2.983.82-4.019 2.17-.993 1.294-1.508 2.977-1.452 4.74.01.298.033.573.071.833.103.751.31 1.47.615 2.139a.955.955 0 001.093.53c.432 1.072 1.085 1.964 1.876 2.587-.515 2.098-2.47 2.026-2.49 2.027a3.9 3.9 0 00-3.768 3.893v3.868c0 .528.428.956.956.956h15.95a.955.955 0 00.956-.956v-3.868a3.9 3.9 0 00-3.767-3.893zm-9.516-7.462a5.579 5.579 0 01-.066-.715c-.042-1.323.334-2.571 1.058-3.515.681-.887 1.592-1.393 2.565-1.424.032-.001.796-.062 1.438.318.134.08.299.103.454.1.02-.001.306-.016.32-.015 1.713.01 3.162 1.78 3.231 3.944.008.248-.002.492-.029.732-.632-1.085-1.572-1.926-2.69-2.396a.956.956 0 00-1.265.55 4.11 4.11 0 01-.267.577c-.25.45-.764.714-1.34.696a5.113 5.113 0 00-1.97.318 5.17 5.17 0 00-1.439.83zm1.332 1.386c.242-.178.508-.31.779-.427.493-.212 1.16-.2 1.233-.198 1.23.042 2.354-.534 2.98-1.515.487.374.89.877 1.17 1.473-.296 2.145-1.63 3.776-3.145 3.776-1.35 0-2.563-1.278-3.017-3.109zm2.1 4.912a3.994 3.994 0 001.842 0 4.396 4.396 0 001.802 2.368 2.904 2.904 0 01-2.724 1.908 2.904 2.904 0 01-2.723-1.908 4.395 4.395 0 001.802-2.368zm-6.1 7.97v-2.913c0-1.095.89-1.985 1.985-1.985.022 0 .37-.02.52-.04a4.82 4.82 0 004.515 3.155 4.82 4.82 0 004.515-3.155c.15.02.498.04.52.04 1.095 0 1.985.89 1.985 1.985v2.913H7.42z" fill="#0093E6"/></svg><svg fill="none" viewBox="0 0 130 130" id="ellipse" xmlns="http://www.w3.org/2000/svg"><g filter="url(#ffilter0_d)"><path d="M65 112.5a47.503 47.503 0 01-43.884-29.323A47.5 47.5 0 11112.5 65" stroke="url(#fpaint0_linear)" stroke-width="5" stroke-linecap="round" stroke-linejoin="round"/></g><defs><linearGradient id="fpaint0_linear" x1="65" y1="15" x2="65" y2="115" gradientUnits="userSpaceOnUse"><stop stop-color="#0093E6"/><stop offset="1" stop-color="#0093E6" stop-opacity="0"/></linearGradient><filter id="ffilter0_d" x="0" y="0" width="130" height="130" filterUnits="userSpaceOnUse" color-interpolation-filters="sRGB"><feFlood flood-opacity="0" result="BackgroundImageFix"/><feColorMatrix in="SourceAlpha" values="0 0 0 0 0 0 0 0 0 0 0 0 0 0 0 0 0 0 127 0"/><feOffset/><feGaussianBlur stdDeviation="7.5"/><feColorMatrix values="0 0 0 0 0 0 0 0 0 0.577255 0 0 0 0 0.901961 0 0 0 0.6 0"/><feBlend in2="BackgroundImageFix" result="effect1_dropShadow"/><feBlend in="SourceGraphic" in2="effect1_dropShadow" result="shape"/></filter></defs></svg><svg fill="none" viewBox="0 0 30 30" id="facebook" xmlns="http://www.w3.org/2000/svg"><g clip-path="url(#gclip0)"><path d="M17.026 29.941h-4.814a1.458 1.458 0 01-1.458-1.455V17.65H7.945a1.458 1.458 0 01-1.458-1.455V11.55c0-.802.654-1.455 1.458-1.455h2.809V7.771c0-2.306.725-4.267 2.097-5.672C14.23.687 16.156-.06 18.421-.06l3.672.006a1.459 1.459 0 011.455 1.456v4.31c0 .803-.654 1.456-1.458 1.456l-2.471.001c-.754 0-.946.15-.987.197-.068.077-.148.293-.148.892v1.837h3.42a1.46 1.46 0 011.472 1.456l-.002 4.643c0 .802-.654 1.455-1.458 1.455h-3.432v10.836c0 .803-.655 1.455-1.459 1.455zm-4.51-1.758h4.205v-11.32c0-.536.437-.972.974-.972h3.917l.002-4.036h-3.92a.973.973 0 01-.973-.972V8.26c0-.687.07-1.469.59-2.056.628-.71 1.617-.792 2.307-.792h2.168V1.705L18.42 1.7c-3.641 0-5.904 2.326-5.904 6.071v3.112a.974.974 0 01-.973.972H8.249v4.036h3.294c.536 0 .973.436.973.972v11.32zm9.573-26.477z" fill="#fff"/></g><defs><clipPath id="gclip0"><path fill="#fff" d="M0 0h30v30H0z"/></clipPath></defs></svg><svg fill="none" viewBox="0 0 30 30" id="instagram" xmlns="http://www.w3.org/2000/svg"><path d="M21.88 0H8.12C3.644 0 0 3.643 0 8.12v13.76C0 26.357 3.643 30 8.12 30h13.76c4.477 0 8.12-3.643 8.12-8.12V8.12C30 3.644 26.357 0 21.88 0zm6.361 21.88a6.369 6.369 0 01-6.362 6.361H8.121a6.37 6.37 0 01-6.362-6.361V8.12A6.37 6.37 0 018.12 1.76h13.758a6.37 6.37 0 016.362 6.362v13.758z" fill="#fff"/><path d="M15 6.797c-4.523 0-8.203 3.68-8.203 8.203s3.68 8.203 8.203 8.203 8.203-3.68 8.203-8.203S19.523 6.797 15 6.797zm0 14.647A6.452 6.452 0 018.556 15 6.452 6.452 0 0115 8.556 6.452 6.452 0 0121.444 15 6.451 6.451 0 0115 21.444zM23.399 3.884a2.426 2.426 0 00-2.424 2.424A2.427 2.427 0 0023.4 8.732a2.427 2.427 0 002.424-2.424A2.427 2.427 0 0023.4 3.884zm0 3.089a.666.666 0 11.002-1.332.666.666 0 01-.002 1.332z" fill="#fff"/></svg><svg fill="none" viewBox="0 0 50 50" id="laptop" xmlns="http://www.w3.org/2000/svg"><path d="M41.294 12.93H8.707c-.595 0-1.076.483-1.076 1.077v16.252a1.076 1.076 0 002.152 0V15.083h30.435v15.176a1.076 1.076 0 102.152 0V14.007c0-.594-.482-1.076-1.076-1.076z" fill="#4A4D4E"/><path d="M49.032 34.102H47.05V11.504a3.256 3.256 0 00-3.253-3.253H6.203a3.256 3.256 0 00-3.253 3.253v22.598H.968A.968.968 0 000 35.07v1.901a4.783 4.783 0 004.778 4.778h40.444A4.783 4.783 0 0050 36.971v-1.9a.968.968 0 00-.968-.97zM5.102 11.504c0-.607.494-1.101 1.101-1.101h37.594c.607 0 1.1.494 1.1 1.1v22.599h-14.57a.968.968 0 00-.995.968c0 .817-.665 1.482-1.482 1.482h-5.7a1.484 1.484 0 01-1.482-1.482c0-.542-.45-.98-.99-.968H5.101V11.504zM48.063 36.97a2.844 2.844 0 01-2.84 2.841H4.777a2.844 2.844 0 01-2.841-2.84v-.933H18.87a3.426 3.426 0 003.28 2.45h5.699a3.426 3.426 0 003.28-2.45h16.933v.932z" fill="#4A4D4E"/><path d="M26.595 19.186a1.076 1.076 0 00-1.522 0l-6.767 6.767a1.076 1.076 0 001.521 1.522l6.768-6.768c.42-.42.42-1.101 0-1.521zM30.606 23.107a1.076 1.076 0 00-1.521 0l-2.696 2.696a1.076 1.076 0 001.521 1.522l2.696-2.696c.42-.42.42-1.101 0-1.522z" fill="#4A4D4E"/></svg><svg fill="none" viewBox="0 0 58 55" id="logo" xmlns="http://www.w3.org/2000/svg"><path d="M29 0l28.532 20.73-10.898 33.54H11.366L.468 20.73 29 0z" fill="#0093E6"/></svg><svg fill="none" viewBox="0 0 50 50" id="phone" xmlns="http://www.w3.org/2000/svg"><path d="M25 40.833a2.777 2.777 0 00-2.773 2.774A2.777 2.777 0 0025 46.381a2.777 2.777 0 002.774-2.774A2.777 2.777 0 0025 40.833zm0 3.627a.854.854 0 010-1.706.854.854 0 010 1.706zM29.55 3.95h-4.922a1.014 1.014 0 100 2.028h4.922a1.014 1.014 0 100-2.028zM21.515 6.053a1.064 1.064 0 100-2.129 1.064 1.064 0 000 2.13z" fill="#4A4D4E"/><path d="M36.826 0H13.174a3.205 3.205 0 00-3.202 3.202v43.596A3.205 3.205 0 0013.174 50h23.652a3.205 3.205 0 003.202-3.202V3.202A3.205 3.205 0 0036.826 0zm1.067 46.798c0 .589-.479 1.068-1.067 1.068H13.174a1.068 1.068 0 01-1.068-1.068V3.202c0-.589.479-1.068 1.068-1.068h23.652c.588 0 1.067.48 1.067 1.068v43.596z" fill="#4A4D4E"/><path d="M26.799 20.04a1.068 1.068 0 00-1.51 0l-5.126 5.126a1.067 1.067 0 001.51 1.51l5.126-5.127a1.067 1.067 0 000-1.51zM29.837 23.01a1.068 1.068 0 00-1.51 0l-2.042 2.042a1.068 1.068 0 001.51 1.51l2.042-2.042a1.067 1.067 0 000-1.51z" fill="#4A4D4E"/><path d="M34.704 7.9H15.297a.96.96 0 00-.96.96v29.421c0 .53.43.96.96.96h19.407c.53 0 .96-.43.96-.96V8.86a.96.96 0 00-.96-.96zm-.96 29.42H16.256V9.82h17.486v27.5z" fill="#4A4D4E"/></svg><svg fill="none" viewBox="0 0 50 50" id="share" xmlns="http://www.w3.org/2000/svg"><path d="M44.691 13.152a5.315 5.315 0 00-5.309 5.31c0 1.067.318 2.061.863 2.895l-5.736 5.735a5.275 5.275 0 00-2.895-.862c-1.107 0-2.135.34-2.986.922l-5.795-5.796a5.276 5.276 0 00.862-2.895 5.315 5.315 0 00-5.309-5.309 5.315 5.315 0 00-5.309 5.31c0 1.067.318 2.06.862 2.894l-5.736 5.736a5.275 5.275 0 00-2.894-.862A5.315 5.315 0 000 31.539a5.315 5.315 0 005.309 5.309 5.315 5.315 0 005.309-5.31 5.276 5.276 0 00-.863-2.895l5.736-5.735a5.276 5.276 0 002.895.862 5.276 5.276 0 002.895-.862l5.827 5.827a5.276 5.276 0 00-.803 2.804 5.315 5.315 0 005.309 5.308 5.315 5.315 0 005.309-5.308 5.276 5.276 0 00-.862-2.895l5.736-5.736a5.276 5.276 0 002.894.862A5.315 5.315 0 0050 18.461a5.315 5.315 0 00-5.309-5.309zM5.309 34.653a3.118 3.118 0 01-3.115-3.114 3.118 3.118 0 013.115-3.115 3.118 3.118 0 013.114 3.115 3.118 3.118 0 01-3.114 3.114zm13.077-13.077a3.118 3.118 0 01-3.114-3.115 3.118 3.118 0 013.114-3.114 3.118 3.118 0 013.115 3.114 3.118 3.118 0 01-3.115 3.115zm13.228 13.077a3.118 3.118 0 01-3.115-3.114 3.118 3.118 0 013.115-3.115 3.118 3.118 0 013.114 3.115 3.118 3.118 0 01-3.114 3.114zM44.69 21.576a3.118 3.118 0 01-3.114-3.115 3.118 3.118 0 013.114-3.114 3.118 3.118 0 013.115 3.114 3.118 3.118 0 01-3.115 3.115z" fill="#4A4D4E"/><path d="M17.263 26.633a1.097 1.097 0 00-1.552 0l-2.232 2.231a1.097 1.097 0 101.552 1.552l2.232-2.232a1.097 1.097 0 000-1.552zM36.52 19.623a1.097 1.097 0 00-1.552 0l-2.232 2.232a1.097 1.097 0 001.552 1.551l2.232-2.232a1.097 1.097 0 000-1.551z" fill="#4A4D4E"/></svg><svg fill="none" viewBox="0 0 30 30" id="twitter" xmlns="http://www.w3.org/2000/svg"><g clip-path="url(#mclip0)"><path d="M11.415 27.405c-5.007 0-8.964-.875-10.858-2.4l-.036-.03-.034-.033c-.45-.45-.597-1.04-.404-1.62l.018-.047c.234-.586.809-.981 1.43-.985 1.282-.022 2.402-.174 3.42-.47-1.623-.755-2.75-2.061-3.42-3.952a1.4 1.4 0 01.489-1.633 1.43 1.43 0 01.426-.218c-.901-1.04-1.567-2.224-1.94-3.477l-.012-.039-.008-.04c-.126-.633.157-1.284.676-1.564.217-.125.454-.19.691-.196a7.314 7.314 0 01-.552-1.686c-.306-1.577-.054-3.159.75-4.7l.187-.372a1.04 1.04 0 011.661-.27l.34.34c2.677 2.807 5.076 4.14 9.223 5.05a7.348 7.348 0 011.984-4.236c1.321-1.385 3.086-2.163 4.968-2.19h.012c1.374 0 3.078.785 4.108 1.338.884-.29 1.95-.737 3.054-1.211a1.395 1.395 0 011.561.275c.399.398.51.96.298 1.506-.08.224-.172.444-.273.658.151.07.29.164.407.28.353.354.5.908.375 1.41l-.014.049c-.423 1.364-1.236 2.476-2.312 3.173-.18 9.568-7.384 17.29-16.215 17.29zm-9.17-3.38c1.784 1.01 5.184 1.62 9.17 1.62 3.833 0 7.45-1.645 10.184-4.633C24.356 18 25.874 14 25.874 9.75V9.7c0-.385.212-.737.553-.917.692-.367 1.252-.991 1.617-1.79a1.033 1.033 0 01-.992-.405 1.033 1.033 0 01-.008-1.228c.145-.2.276-.406.392-.62-.954.4-1.86.76-2.647.998a1.125 1.125 0 01-.865-.093c-1.4-.78-2.705-1.247-3.492-1.249-2.902.044-5.261 2.53-5.261 5.543a1.035 1.035 0 01-1.239 1.018C9.15 10.016 6.317 8.604 3.37 5.643c-.422 1.012-.537 2.03-.342 3.037.198 1.02.724 2.041 1.523 2.954.304.347.344.842.1 1.233a1.03 1.03 0 01-1.147.454 4.749 4.749 0 01-.967-.372c.615 1.337 1.674 2.573 3.005 3.485a1.039 1.039 0 01-.664 1.89 4.665 4.665 0 01-1.377-.298c.746 1.52 1.939 2.356 3.775 2.676a1.038 1.038 0 01.309 1.939c-1.566.83-3.277 1.275-5.34 1.385z" fill="#fff"/></g><defs><clipPath id="mclip0"><path fill="#fff" d="M0 0h30v30H0z"/></clipPath></defs></svg><svg fill="none" viewBox="0 0 30 30" id="youtube" xmlns="http://www.w3.org/2000/svg"><g clip-path="url(#nclip0)" fill="#fff"><path d="M19.618 13.652l-6.628-3.626a1.207 1.207 0 00-1.205.02 1.206 1.206 0 00-.597 1.048v7.19c0 .432.222.823.593 1.045a1.215 1.215 0 001.201.027l6.628-3.564a1.217 1.217 0 00.008-2.14zm-6.672 3.728v-5.375l4.954 2.71-4.954 2.665z"/><path d="M29.78 8.996l-.002-.014c-.025-.241-.278-2.39-1.323-3.482-1.206-1.285-2.575-1.44-3.233-1.516a7.99 7.99 0 01-.149-.017l-.052-.006c-3.966-.288-9.956-.328-10.016-.328h-.01c-.06 0-6.05.04-10.052.328l-.052.006-.141.016c-.65.076-2.004.232-3.214 1.563C.54 6.627.254 8.73.224 8.965l-.003.03C.21 9.097 0 11.489 0 13.89v2.244c0 2.402.212 4.794.22 4.895l.002.015c.026.237.278 2.346 1.318 3.439 1.134 1.242 2.57 1.406 3.341 1.494.122.014.227.026.299.039l.07.01c2.29.217 9.469.325 9.773.329h.019c.06 0 6.049-.04 10.015-.328l.052-.006.169-.018c.646-.07 1.993-.212 3.186-1.525.995-1.081 1.283-3.183 1.312-3.419l.003-.03c.01-.101.221-2.493.221-4.895V13.89c0-2.402-.212-4.794-.22-4.894zm-1.538 7.138c0 2.223-.194 4.512-.213 4.722-.074.58-.377 1.909-.862 2.436-.747.821-1.515.903-2.075.962l-.187.021c-3.836.278-9.6.32-9.865.322-.298-.004-7.372-.113-9.593-.319a7.838 7.838 0 00-.366-.047c-.657-.076-1.556-.179-2.248-.94l-.016-.017c-.476-.496-.771-1.74-.846-2.41a61.433 61.433 0 01-.213-4.73V13.89c0-2.22.194-4.507.212-4.721.09-.682.398-1.932.863-2.436.77-.847 1.582-.941 2.119-1.003l.143-.017c3.892-.28 9.697-.32 9.905-.322.208.001 6.011.043 9.868.322l.155.018c.552.063 1.387.158 2.153.975l.007.008c.476.496.77 1.761.846 2.446.013.15.213 2.471.213 4.73v2.244z"/></g><defs><clipPath id="nclip0"><path fill="#fff" d="M0 0h30v30H0z"/></clipPath></defs></svg></svg>